<svg width="1920" height="855" viewBox="0 0 1920 855" fill="none" xmlns="http://www.w3.org/2000/svg">
<path d="M675 244.825C457 -11.597 86.8333 -24.0561 0 19.0715V855H1920V439.698L1919.5 438.633C1904 426.919 1836.5 397.635 1690.5 291.148C1266.5 -108.714 801.5 233.644 675 244.825Z" fill="#1F2937" fill-opacity="0.6"/>
<path d="M291.5 166.908C124.764 115.968 57.8333 112.762 0 122.171V855H1920V211.645C1865 196.377 1742.4 161.582 1704 161.582C1559 161.582 1463.5 188.744 1274.5 245.73C1085.5 302.716 955.5 133.726 753 122.171C595.5 113.184 420.5 206.319 291.5 166.908Z" fill="#374151" fill-opacity="0.6"/>
<path d="M263.5 207.989C140.118 160.506 37.5 178.192 0 197.347V855H1920V308.552C1900.83 299.862 1838 271.307 1740 226.612C1617.5 170.743 1383.5 294.718 1252 319.726C1120.5 344.734 877.031 175 717 175C552 175 446 278.224 263.5 207.989Z" fill="#31345A"/>
</svg>
